<svg width="38" height="38" viewBox="0 0 38 38" fill="none" xmlns="http://www.w3.org/2000/svg">
<path d="M18.7431 11.271C18.8728 11.4006 19.0427 11.4655 19.2127 11.4655C19.3826 11.4655 19.5526 11.4006 19.6823 11.271L23.3698 7.58343C23.9878 6.96549 24.328 6.14395 24.328 5.27007C24.328 4.39619 23.9878 3.57464 23.3698 2.95664C22.2409 1.82788 20.4856 1.69805 19.2127 2.56708C17.9397 1.69798 16.1843 1.82788 15.0555 2.95664C14.4375 3.57464 14.0972 4.39619 14.0972 5.27007C14.0972 6.14395 14.4375 6.96549 15.0555 7.58343L18.7431 11.271ZM15.9947 3.89586C16.3736 3.51693 16.8712 3.32753 17.3689 3.32753C17.8665 3.32753 18.3643 3.51706 18.7431 3.89586C19.0024 4.15512 19.4229 4.15512 19.6823 3.89586C20.44 3.13807 21.673 3.1382 22.4307 3.89586C22.7977 4.26291 22.9999 4.75095 22.9999 5.27007C22.9999 5.78912 22.7977 6.27716 22.4307 6.64421L19.2127 9.8622L15.9946 6.64421C15.6276 6.27716 15.4254 5.78912 15.4254 5.27007C15.4255 4.75095 15.6276 4.26291 15.9947 3.89586Z" fill="#FA737D"/>
<path d="M33.4088 26.6263C34.3833 25.0003 34.2882 22.9048 33.1381 21.3728C33.6339 19.83 33.2358 18.1439 32.072 16.9802C31.8733 16.7815 31.6558 16.6025 31.4234 16.446C30.3914 13.9187 27.9024 12.2365 25.1581 12.2365C22.4137 12.2365 19.9248 13.9187 18.8928 16.446C18.6603 16.6025 18.4429 16.7815 18.2442 16.9801C18.2298 16.9945 18.216 17.0094 18.2018 17.024V15.0446C18.2018 13.4962 16.9421 12.2365 15.3937 12.2365H9.13222C8.76544 12.2365 8.46813 12.5339 8.46813 12.9006V15.8151C8.46813 16.579 8.77507 17.2722 9.27168 17.779V20.4807C9.27168 21.9888 10.024 23.3237 11.1722 24.1325V25.1693H7.50832C5.02249 25.1693 3.00006 27.1917 3.00006 29.6776V35.3359C3.00006 35.7026 3.29738 36 3.66415 36H16.5187C16.8855 36 17.1828 35.7026 17.1828 35.3359C17.1828 34.9692 16.8855 34.6718 16.5187 34.6718H13.8465C13.9223 32.4009 15.7933 30.5768 18.0824 30.5768H20.9319C23.221 30.5768 25.092 32.4009 25.1678 34.6718H22.4956C22.1288 34.6718 21.8315 34.9692 21.8315 35.3359C21.8315 35.7026 22.1288 36 22.4956 36H34.7612C35.128 36 35.4253 35.7026 35.4253 35.3359V30.6594C35.4253 29.0128 34.6325 27.5482 33.4088 26.6263ZM18.5439 21.2376C18.0564 20.0978 18.3074 18.7954 19.1834 17.9194C19.3604 17.7423 19.5587 17.5878 19.773 17.46C19.9034 17.3822 20.0032 17.2621 20.0558 17.1196C20.8403 14.9933 22.8907 13.5648 25.1581 13.5648C27.4254 13.5648 29.4759 14.9934 30.2604 17.1196C30.313 17.2621 30.4128 17.3822 30.5433 17.4601C30.7574 17.5877 30.9557 17.7423 31.1328 17.9194C32.0088 18.7953 32.2598 20.0978 31.7722 21.2376C31.6706 21.4752 31.7161 21.7503 31.8889 21.9426C32.8969 23.0646 33.0225 24.7201 32.2515 25.9742C31.6718 25.7416 31.04 25.6122 30.3782 25.6122H27.6341V24.6706C28.7293 23.893 29.446 22.6156 29.446 21.1731V19.1405C29.446 18.7738 29.1487 18.4764 28.7819 18.4764H27.5778C27.1672 18.4764 26.7823 18.3011 26.5126 18.005C26.6797 17.6296 26.7734 17.2146 26.7734 16.7779C26.7734 16.4112 26.4761 16.1138 26.1093 16.1138C25.7426 16.1138 25.4452 16.4112 25.4452 16.7779C25.4452 17.7145 24.6833 18.4764 23.7468 18.4764H21.5343C21.1675 18.4764 20.8702 18.7738 20.8702 19.1405V21.1731C20.8702 21.9736 21.0913 22.7233 21.4748 23.3653C20.9071 22.9985 20.2319 22.7845 19.5071 22.7845C18.8458 22.7845 18.2256 22.9629 17.6906 23.2727C17.8292 22.7861 18.0779 22.3314 18.4272 21.9425C18.6 21.7502 18.6455 21.4752 18.5439 21.2376ZM17.199 26.9404V26.4209C17.199 25.1482 18.2345 24.1128 19.5072 24.1128C20.7799 24.1128 21.8154 25.1482 21.8154 26.4209V26.9404C21.8154 28.2131 20.7799 29.2486 19.5072 29.2486C18.2345 29.2486 17.199 28.2131 17.199 26.9404ZM23.7468 19.8046C24.4955 19.8046 25.1809 19.5308 25.7099 19.0788C26.2128 19.5382 26.876 19.8046 27.5778 19.8046H28.1178V21.1731C28.1178 22.8051 26.7901 24.1328 25.1581 24.1328C23.5261 24.1328 22.1984 22.8051 22.1984 21.1731V19.8046H23.7468ZM24.0103 25.3038C24.3759 25.4055 24.7605 25.4611 25.1581 25.4611C25.5557 25.4611 25.9403 25.4055 26.3059 25.3038V26.3896C26.3059 27.0225 25.791 27.5374 25.1581 27.5374C24.5252 27.5374 24.0103 27.0225 24.0103 26.3896V25.3038ZM9.79638 13.5648H15.3937C16.2098 13.5648 16.8737 14.2287 16.8737 15.0447V17.2952H11.2764C10.4603 17.2952 9.79638 16.6313 9.79638 15.8152V13.5648ZM10.5999 18.5404C10.8166 18.5943 11.0431 18.6233 11.2763 18.6233H16.8736V20.4807C16.8736 22.2104 15.4664 23.6176 13.7367 23.6176C12.007 23.6176 10.5999 22.2104 10.5999 20.4807V18.5404ZM13.7368 24.9458C14.1657 24.9458 14.5802 24.8838 14.9732 24.7703V25.9522C14.9732 26.6339 14.4185 27.1886 13.7368 27.1886C13.055 27.1886 12.5004 26.6338 12.5004 25.9522V24.7703C12.8933 24.8838 13.3078 24.9458 13.7368 24.9458ZM12.5196 34.6718H4.32824V29.6776C4.32824 27.9241 5.75478 26.4975 7.50832 26.4975H11.2311C11.4818 27.6505 12.5098 28.5168 13.7368 28.5168C14.6406 28.5168 15.436 28.0464 15.8929 27.3381C15.979 28.1256 16.3172 28.8384 16.8255 29.3934C14.4046 29.9546 12.5851 32.0983 12.5196 34.6718ZM34.0971 34.6718H26.4947C26.4292 32.0983 24.6096 29.9546 22.1889 29.3935C22.6168 28.926 22.9241 28.3467 23.0619 27.705C23.5006 28.4015 24.276 28.8656 25.1581 28.8656C26.334 28.8656 27.3204 28.0413 27.5715 26.9405H30.3782C32.4288 26.9405 34.0971 28.6087 34.0971 30.6594V34.6718Z" fill="#FA737D"/>
</svg>
