<svg width="38" height="38" viewBox="0 0 38 38" fill="none" xmlns="http://www.w3.org/2000/svg">
<path fill-rule="evenodd" clip-rule="evenodd" d="M33.5643 16.3499H4.43567C4.09938 16.3499 3.82675 16.6154 3.82675 16.9429V19.3088C3.82675 19.6363 4.09938 19.9018 4.43567 19.9018H33.5643C33.9006 19.9018 34.1732 19.6363 34.1732 19.3088V16.9429C34.1732 16.6154 33.9006 16.3499 33.5643 16.3499ZM4.43567 14.571C3.09049 14.571 2 15.6329 2 16.9429V19.3088C2 20.6188 3.09049 21.6808 4.43567 21.6808H33.5643C34.9095 21.6808 36 20.6188 36 19.3088V16.9429C36 15.6329 34.9095 14.571 33.5643 14.571H4.43567Z" fill="#FA737D"/>
<path fill-rule="evenodd" clip-rule="evenodd" d="M5.13071 20.8908V32.7386C5.13071 33.5573 5.81226 34.221 6.65301 34.221H30.9245C31.7653 34.221 32.4468 33.5573 32.4468 32.7386V20.8908H34.2736V32.7386C34.2736 34.5398 32.7741 36 30.9245 36H6.65301C4.80338 36 3.30396 34.5398 3.30396 32.7386V20.8908H5.13071Z" fill="#FA737D"/>
<path fill-rule="evenodd" clip-rule="evenodd" d="M24.2196 12.7421C25.7099 11.8213 27.0326 10.5392 27.5686 9.69403C28.5161 8.20004 27.9981 6.44809 26.6211 5.72437C25.2441 5.00064 23.3184 5.46824 22.3709 6.96222C21.8349 7.80744 21.2766 9.4912 21.1457 11.1265C21.0815 11.929 21.131 12.6054 21.269 13.0901C21.3364 13.3268 21.4144 13.4802 21.4784 13.5717C21.5383 13.6575 21.5762 13.676 21.5776 13.6768L21.5777 13.6768C21.5802 13.6782 21.6174 13.6981 21.7271 13.7024C21.8462 13.7071 22.0311 13.6919 22.29 13.6267C22.8201 13.4931 23.4882 13.194 24.2196 12.7421ZM20.6176 15.1903C22.9408 16.4113 27.734 12.8129 29.1762 10.5389C30.6183 8.26501 29.9042 5.43181 27.581 4.21081C25.2579 2.98981 22.2055 3.84338 20.7634 6.11731C19.3212 8.39124 18.2945 13.9693 20.6176 15.1903Z" fill="#FA737D"/>
<path fill-rule="evenodd" clip-rule="evenodd" d="M14.0002 12.7429C12.5104 11.8227 11.1883 10.5415 10.6526 9.6969C9.70613 8.20452 10.2236 6.45307 11.6012 5.72901C12.9789 5.00495 14.9038 5.47271 15.8503 6.9651C16.386 7.8097 16.9438 9.4926 17.0743 11.1272C17.1383 11.9294 17.0888 12.6054 16.9507 13.09C16.8832 13.3266 16.8052 13.4799 16.7412 13.5714C16.6822 13.6559 16.6446 13.6753 16.6419 13.6766L16.6418 13.6767C16.6403 13.6775 16.6036 13.698 16.492 13.7024C16.3729 13.7072 16.1881 13.692 15.9292 13.6268C15.3992 13.4934 14.7313 13.1945 14.0002 12.7429ZM17.6017 15.1902C15.2786 16.4112 10.4866 12.8148 9.04505 10.5418C7.6035 8.26886 8.31817 5.43645 10.6413 4.21545C12.9644 2.99445 16.0163 3.84723 17.4579 6.12019C18.8994 8.39314 19.9249 13.9692 17.6017 15.1902Z" fill="#FA737D"/>
<path fill-rule="evenodd" clip-rule="evenodd" d="M18.0867 35.1107L18.0867 15.3611L19.9134 15.3611L19.9134 35.1107L18.0867 35.1107Z" fill="#FA737D"/>
</svg>
