<svg width="38" height="38" viewBox="0 0 38 38" fill="none" xmlns="http://www.w3.org/2000/svg">
<path fill-rule="evenodd" clip-rule="evenodd" d="M6.86791 19.7062C4.96184 19.7062 3.41667 21.2466 3.41667 23.1469C3.41667 25.0472 4.96184 26.5876 6.86791 26.5876H31.1321C33.0382 26.5876 34.5833 25.0472 34.5833 23.1469C34.5833 21.2466 33.0382 19.7062 31.1321 19.7062H6.86791ZM2 23.1469C2 20.4666 4.17944 18.2938 6.86791 18.2938H31.1321C33.8206 18.2938 36 20.4666 36 23.1469C36 25.8272 33.8206 28 31.1321 28H6.86791C4.17944 28 2 25.8272 2 23.1469Z" fill="#FA737D"/>
<path fill-rule="evenodd" clip-rule="evenodd" d="M11.7208 11.4124C11.3462 11.4124 11.0426 11.7151 11.0426 12.0885C11.0426 12.4619 11.3462 12.7646 11.7208 12.7646H26.2793C26.6538 12.7646 26.9575 12.4619 26.9575 12.0885C26.9575 11.7151 26.6538 11.4124 26.2793 11.4124H11.7208ZM9.62591 12.0885C9.62591 10.935 10.5638 10 11.7208 10H26.2793C27.4362 10 28.3741 10.935 28.3741 12.0885C28.3741 13.2419 27.4362 14.177 26.2793 14.177H11.7208C10.5638 14.177 9.62591 13.2419 9.62591 12.0885Z" fill="#FA737D"/>
<path fill-rule="evenodd" clip-rule="evenodd" d="M17.9752 14.177V18.2938H20.0248V14.177H17.9752ZM16.5585 14.1619C16.5585 13.3902 17.186 12.7646 17.9601 12.7646H20.0399C20.814 12.7646 21.4415 13.3902 21.4415 14.1619V18.3089C21.4415 19.0806 20.814 19.7062 20.0399 19.7062H17.9601C17.186 19.7062 16.5585 19.0806 16.5585 18.3089V14.1619Z" fill="#FA737D"/>
<path d="M17.9601 24.5292C18.7259 24.5292 19.3467 23.9103 19.3467 23.1469C19.3467 22.3835 18.7259 21.7646 17.9601 21.7646C17.1944 21.7646 16.5736 22.3835 16.5736 23.1469C16.5736 23.9103 17.1944 24.5292 17.9601 24.5292Z" fill="#FA737D"/>
<path fill-rule="evenodd" clip-rule="evenodd" d="M17.9601 22.1177C17.39 22.1177 16.9278 22.5785 16.9278 23.1469C16.9278 23.7153 17.39 24.1761 17.9601 24.1761C18.5303 24.1761 18.9925 23.7153 18.9925 23.1469C18.9925 22.5785 18.5303 22.1177 17.9601 22.1177ZM16.2194 23.1469C16.2194 22.1885 16.9988 21.4115 17.9601 21.4115C18.9215 21.4115 19.7008 22.1885 19.7008 23.1469C19.7008 24.1054 18.9215 24.8823 17.9601 24.8823C16.9988 24.8823 16.2194 24.1054 16.2194 23.1469Z" fill="#FA737D"/>
<path d="M24.1995 24.5292C24.9652 24.5292 25.586 23.9103 25.586 23.1469C25.586 22.3835 24.9652 21.7646 24.1995 21.7646C23.4337 21.7646 22.8129 22.3835 22.8129 23.1469C22.8129 23.9103 23.4337 24.5292 24.1995 24.5292Z" fill="#FA737D"/>
<path fill-rule="evenodd" clip-rule="evenodd" d="M24.1994 22.1177C23.6293 22.1177 23.1671 22.5785 23.1671 23.1469C23.1671 23.7153 23.6293 24.1761 24.1994 24.1761C24.7696 24.1761 25.2318 23.7153 25.2318 23.1469C25.2318 22.5785 24.7696 22.1177 24.1994 22.1177ZM22.4587 23.1469C22.4587 22.1885 23.2381 21.4115 24.1994 21.4115C25.1608 21.4115 25.9401 22.1885 25.9401 23.1469C25.9401 24.1054 25.1608 24.8823 24.1994 24.8823C23.2381 24.8823 22.4587 24.1054 22.4587 23.1469Z" fill="#FA737D"/>
<path d="M30.4388 24.5292C31.2046 24.5292 31.8254 23.9103 31.8254 23.1469C31.8254 22.3835 31.2046 21.7646 30.4388 21.7646C29.6731 21.7646 29.0523 22.3835 29.0523 23.1469C29.0523 23.9103 29.6731 24.5292 30.4388 24.5292Z" fill="#FA737D"/>
<path fill-rule="evenodd" clip-rule="evenodd" d="M30.4389 22.1177C29.8687 22.1177 29.4065 22.5785 29.4065 23.1469C29.4065 23.7153 29.8687 24.1761 30.4389 24.1761C31.009 24.1761 31.4712 23.7153 31.4712 23.1469C31.4712 22.5785 31.009 22.1177 30.4389 22.1177ZM28.6982 23.1469C28.6982 22.1885 29.4775 21.4115 30.4389 21.4115C31.4002 21.4115 32.1796 22.1885 32.1796 23.1469C32.1796 24.1054 31.4002 24.8823 30.4389 24.8823C29.4775 24.8823 28.6982 24.1054 28.6982 23.1469Z" fill="#FA737D"/>
</svg>
