<svg width="38" height="38" viewBox="0 0 38 38" fill="none" xmlns="http://www.w3.org/2000/svg">
<path fill-rule="evenodd" clip-rule="evenodd" d="M6.64649 10.9138C6.74645 10.6339 7.00771 10.4476 7.30021 10.4476H29.6998C29.9923 10.4476 30.2535 10.6339 30.3535 10.9138L32.9581 18.2076C33.0428 18.4448 32.9972 18.7099 32.8384 18.9036L19.034 35.7456C18.9019 35.9068 18.7063 36 18.5 36C18.2937 36 18.0981 35.9068 17.966 35.7456L4.16158 18.9036C4.0028 18.7099 3.95721 18.4448 4.04189 18.2076L6.64649 10.9138ZM7.78743 11.8642L5.48611 18.3087L18.5 34.1863L31.5139 18.3087L29.2126 11.8642H7.78743Z" fill="#FA737D"/>
<path fill-rule="evenodd" clip-rule="evenodd" d="M11.188 10.4821C11.5534 10.3614 11.9458 10.5652 12.0643 10.9373L18.5132 31.1854L24.9621 10.9373C25.0806 10.5652 25.4729 10.3614 25.8383 10.4821C26.2038 10.6028 26.4039 11.0023 26.2854 11.3744L19.1748 33.7C19.0818 33.992 18.8147 34.1898 18.5132 34.1898C18.2117 34.1898 17.9445 33.992 17.8515 33.7L10.7409 11.3744C10.6224 11.0023 10.8226 10.6028 11.188 10.4821Z" fill="#FA737D"/>
<path fill-rule="evenodd" clip-rule="evenodd" d="M23.0345 18.9942C22.7104 19.2042 22.2804 19.1069 22.0742 18.7768L18.5132 13.0786L14.9522 18.7768C14.746 19.1069 14.316 19.2042 13.9919 18.9942C13.6678 18.7841 13.5723 18.3463 13.7785 18.0163L17.9263 11.3789C18.054 11.1746 18.2754 11.0509 18.5132 11.0509C18.751 11.0509 18.9724 11.1746 19.1 11.3789L23.2479 18.0163C23.4541 18.3463 23.3586 18.7841 23.0345 18.9942Z" fill="#FA737D"/>
<path fill-rule="evenodd" clip-rule="evenodd" d="M4.26064 18.1844C4.26064 17.7932 4.57207 17.4761 4.95623 17.4761H31.9139C32.298 17.4761 32.6095 17.7932 32.6095 18.1844C32.6095 18.5756 32.298 18.8927 31.9139 18.8927H4.95623C4.57207 18.8927 4.26064 18.5756 4.26064 18.1844Z" fill="#FA737D"/>
<path fill-rule="evenodd" clip-rule="evenodd" d="M18.623 2C19.0072 2 19.3186 2.31713 19.3186 2.70833V6.3287C19.3186 6.7199 19.0072 7.03703 18.623 7.03703C18.2388 7.03703 17.9274 6.7199 17.9274 6.3287V2.70833C17.9274 2.31713 18.2388 2 18.623 2Z" fill="#FA737D"/>
<path fill-rule="evenodd" clip-rule="evenodd" d="M12.0632 7.11178C12.3779 6.8874 12.4544 6.44572 12.234 6.12527L10.1948 3.15964C9.97442 2.83918 9.54069 2.7613 9.22599 2.98569C8.9113 3.21007 8.83482 3.65175 9.05517 3.9722L11.0944 6.93783C11.3147 7.25829 11.7485 7.33617 12.0632 7.11178Z" fill="#FA737D"/>
<path fill-rule="evenodd" clip-rule="evenodd" d="M27.6725 3.13205C27.9872 3.35644 28.0637 3.79811 27.8434 4.11857L25.8041 7.0842C25.5838 7.40465 25.15 7.48253 24.8354 7.25815C24.5207 7.03376 24.4442 6.59209 24.6645 6.27163L26.7038 3.306C26.9241 2.98555 27.3579 2.90767 27.6725 3.13205Z" fill="#FA737D"/>
</svg>
